<?xml version="1.0" standalone="no"?>
<!DOCTYPE svg PUBLIC "-//W3C//DTD SVG 20010904//EN"
 "http://www.w3.org/TR/2001/REC-SVG-20010904/DTD/svg10.dtd">
<svg version="1.0" xmlns="http://www.w3.org/2000/svg"
 width="1024.000000pt" height="1024.000000pt" viewBox="0 0 1024.000000 1024.000000"
 preserveAspectRatio="xMidYMid meet">

<g transform="translate(0.000000,1024.000000) scale(0.100000,-0.100000)"
fill="#000000" stroke="none">
<path d="M8310 9591 c-65 -19 -157 -79 -181 -118 -8 -12 -41 -61 -74 -108 -33
-48 -67 -97 -75 -110 -20 -31 -197 -293 -260 -383 -27 -41 -50 -76 -50 -79 0
-3 -15 -24 -33 -47 -19 -23 -73 -99 -120 -171 -48 -71 -114 -168 -147 -215
-32 -47 -73 -107 -90 -135 -17 -27 -56 -86 -87 -130 -31 -44 -108 -156 -171
-250 -64 -93 -154 -226 -201 -295 -46 -69 -128 -188 -180 -265 -52 -77 -127
-187 -166 -245 -40 -58 -116 -170 -170 -250 -112 -165 -216 -318 -319 -469
-39 -57 -76 -111 -81 -120 -14 -22 -85 -127 -137 -202 -24 -34 -48 -69 -53
-78 -13 -20 -76 -113 -146 -214 -30 -43 -61 -89 -69 -102 -8 -13 -48 -72 -89
-132 -41 -59 -118 -173 -172 -253 -113 -166 -123 -180 -135 -180 -4 0 -322
314 -706 698 -811 810 -758 767 -933 766 -169 -2 -157 7 -515 -356 -364 -368
-370 -377 -370 -528 0 -165 -83 -71 1150 -1308 597 -598 1110 -1106 1140
-1129 68 -50 175 -105 255 -128 79 -24 233 -24 290 -1 159 66 241 137 360 314
28 42 98 146 156 230 57 84 109 161 114 170 13 21 52 80 330 487 49 72 121
177 160 235 39 58 92 136 118 173 26 38 47 71 47 74 0 3 13 22 28 42 24 29
256 369 312 455 16 24 53 80 211 311 237 347 305 447 319 470 8 13 38 57 66
97 103 150 260 381 304 447 45 69 139 207 283 416 180 262 560 825 583 866 6
10 18 27 26 36 8 10 68 97 134 193 65 96 160 238 213 315 52 77 112 166 133
198 64 95 80 142 81 232 0 52 -6 99 -18 135 -18 54 -69 131 -103 157 -72 55
-112 83 -117 83 -4 0 -24 12 -44 28 -20 15 -44 32 -53 37 -35 21 -234 155
-253 171 -30 24 -185 125 -225 147 -27 15 -60 20 -140 23 -58 1 -116 -1 -130
-5z"/>
</g>
</svg>
